# xmcd
#
# Track frame offsets: 
#        150
#        33220
#        59065
#        85440
#        111477
#        133377
#        163227
#        184640
#        211902
#        239127
#
# Disc length: 3709 seconds
#
# Revision: 6
# Processed by: cddbd v1.5.2PL0 Copyright (c) Steve Scherf et al.
# Submitted via: ExactAudioCopy v1.3
#
DISCID=9c0e7b0a
DTITLE=X - B.O.X ～Best of X～ [Disc 2]
DYEAR=1996
DGENRE=Rock
TTITLE0=Silent Jealousy
TTITLE1=Desperate Angel
TTITLE2=紅
TTITLE3=WEEK END
TTITLE4=CELEBRATION
TTITLE5=ENDLESS RAIN
TTITLE6=JOKER
TTITLE7=Sadistic Desire
TTITLE8=X
TTITLE9=Say Anything
EXTD=YEAR: 1996
EXTT0=
EXTT1=
EXTT2=
EXTT3=
EXTT4=
EXTT5=
EXTT6=
EXTT7=
EXTT8=
EXTT9=
PLAYORDER=
